<svg xmlns="http://www.w3.org/2000/svg" viewBox="0 0 1200 360" width="1200" height="360" role="img"><defs><linearGradient id="bg" x1="0" y1="0" x2="1" y2="1"><stop offset="0" stop-color="#0d0d10"/><stop offset="1" stop-color="#e01327"/></linearGradient><radialGradient id="gl" cx="0.5" cy="0.35" r="0.75"><stop offset="0" stop-color="#ff5065" stop-opacity="0.35"/><stop offset="1" stop-color="#ff5065" stop-opacity="0"/></radialGradient></defs><rect width="1200" height="360" fill="url(#bg)"/><rect width="1200" height="360" fill="url(#gl)"/><circle cx="624" cy="85" r="102" fill="#ff5065" opacity="0.093"/><circle cx="475" cy="267" r="72" fill="#ff5065" opacity="0.044"/><circle cx="34" cy="42" r="44" fill="#ff5065" opacity="0.068"/><circle cx="1078" cy="257" r="160" fill="#ff5065" opacity="0.102"/><circle cx="251" cy="319" r="153" fill="#ff5065" opacity="0.101"/><circle cx="928" cy="94" r="155" fill="#ff5065" opacity="0.055"/><circle cx="848" cy="327" r="106" fill="#ff5065" opacity="0.071"/><line x1="0" y1="63" x2="1200" y2="46" stroke="#ff5065" stroke-width="1" opacity="0.05"/><line x1="0" y1="148" x2="1200" y2="163" stroke="#ff5065" stroke-width="1" opacity="0.05"/><line x1="0" y1="71" x2="1200" y2="45" stroke="#ff5065" stroke-width="1" opacity="0.05"/><rect y="50" width="1200" height="260" fill="#000000" opacity="0.20"/><text x="600" y="148" text-anchor="middle" font-family="&#39;Segoe UI&#39;,&#39;Arial&#39;,sans-serif" font-size="78" font-weight="700" fill="#ffffff" textLength="936.0" lengthAdjust="spacingAndGlyphs">Chief Architect Full</text><text x="600" y="230.7" text-anchor="middle" font-family="&#39;Segoe UI&#39;,&#39;Arial&#39;,sans-serif" font-size="78" font-weight="700" fill="#ffffff" textLength="748.8" lengthAdjust="spacingAndGlyphs">Access + Product</text><rect x="530" y="252.7" width="140" height="4" rx="2" fill="#ff5065"/><text x="600" y="290.7" text-anchor="middle" font-family="&#39;Segoe UI&#39;,&#39;Arial&#39;,sans-serif" font-size="30" font-weight="400" fill="#ffffff" fill-opacity="0.85" textLength="967.2" lengthAdjust="spacingAndGlyphs">Unlock, patch, activate — Chief Architect full access, one key</text></svg>